<?xml version="1.0" encoding="utf-8"?>
<!-- Generator: Adobe Illustrator 16.0.0, SVG Export Plug-In . SVG Version: 6.00 Build 0)  -->
<!DOCTYPE svg PUBLIC "-//W3C//DTD SVG 1.1//EN" "http://www.w3.org/Graphics/SVG/1.1/DTD/svg11.dtd">
<svg version="1.1" id="Layer_1" xmlns:sketch="http://www.bohemiancoding.com/sketch/ns"
	 xmlns="http://www.w3.org/2000/svg" xmlns:xlink="http://www.w3.org/1999/xlink" x="0px" y="0px" width="38px" height="25px"
	 viewBox="0 0 38 25" enable-background="new 0 0 38 25" xml:space="preserve">
<title></title>
<desc>Created with Sketch.</desc>
<g>
	<path d="M35.19,0H2.81C1.26,0,0,1.26,0,2.81v19.38C0,23.74,1.26,25,2.81,25h32.38c1.55,0,2.81-1.26,2.81-2.81V2.81
		C38,1.26,36.74,0,35.19,0z M37.55,21.65H0.47V6.71h37.08V21.65z"/>
	<path d="M34.35,12.68c-0.13-0.01,0.091-0.17-0.069-0.32c0.06,0.06,0-0.18-0.061-0.34c-0.13-0.37-0.439-0.59-0.87-0.83
		c-0.369-0.21-0.64-0.07-0.979-0.29c0.01,0.01-0.101-0.13-0.271-0.09c-0.96,0.18-1.56,1.05-2.04,1.88c-0.04,0.07,0,0.19-0.04,0.24
		c0,0-0.14,0.27-0.21,0.379c0,0-0.01,0.011-0.01,0.021c-0.18,0.47-0.109,1.08-0.34,1.53c-0.19,0.35,0.16,0.88-0.08,1.21
		c-0.05,0.08-0.32,0.01-0.42,0.08c-0.21,0.17-0.05,0.649,0.07,0.75c0.1,0.069,0.239,0.01,0.3,0.119c0.1,0.181-0.061,0.45,0,0.7
		c0.08,0.351,0.09,0.67,0.18,1.08c0.12,0.521,0.09,1.03,0.23,1.46c0.22,0.681,0.779,0.08,1.08,0.29c0.02,0,0.29,0.17,0.42,0.05
		c0.069-0.06-0.05-0.479-0.08-0.58c-0.04-0.1-0.26-0.67-0.2-0.64c-0.14-0.06-0.02-0.92-0.07-1.149
		c-0.04-0.15-0.149-1.011,0.011-1.101c0.08-0.05,0.229,0.04,0.3,0.03c0.34-0.08,0.75-0.351,0.97-0.51c0.45-0.341,1.15-0.94,1.36-1.2
		c0.38-0.46,0.939-1.32,0.79-2.23C34.34,13.35,34.4,12.68,34.35,12.68z M31.57,15.34c-0.07,0.061-0.551,0.46-0.61,0.4
		c-0.05-0.05,0.06-0.601,0.08-0.63c0.11-0.2,0.18-0.83,0.24-0.841c0.09-0.02,0.05-0.43,0.08-0.5c0.29-0.52,0.6-1.33,1.029-1.689
		c0.311-0.25,0.221,0.25,0.28,0.46C33.01,13.71,32.19,14.82,31.57,15.34z"/>
	<path d="M28.83,15.53c-0.05,0.06-0.34,0.31-0.35,0.31c-0.25,0.32-0.28,0.561-0.53,0.94c-0.04,0.069-0.13,0.069-0.25,0.109
		c-0.16,0.061-0.29,0.63-0.601,0.57c-0.47-0.09-1.56,0.37-1.859-0.39c-0.141-0.34-0.17-0.62-0.28-1.061
		c-0.17-0.64-0.3-1.569-0.33-2.62c0-0.02-0.02-0.05-0.04-0.05c0,0.01,0,0.01,0,0.021c-0.37-1.01,1.21-0.48,1.47-0.28
		c0.5,0.38,0.07,1.51,0.28,2.31c0.07,0.24,0.01,0.7,0.061,0.91c0.04,0.181,0.01,0.45,0.29,0.181c0.189-0.181,0.39-0.511,0.59-0.841
		c0.22-0.37,0.37-1.14,0.279-1.479c-0.05-0.2,0-0.521-0.01-0.55c-0.5-1.311,1.54-0.65,1.7-0.04C29.39,14.08,29.03,15.24,28.83,15.53
		z"/>
	<path d="M22.85,14.77c-0.09,0.061-0.02,0.24,0.011,0.29c0.149,0.471-0.261,1.33,0.04,1.65c0.17,0.18-0.08,1.07-0.21,1.1
		C22.35,17.91,21.81,17.93,21.8,17.8c-0.03-0.43-0.05-0.99-0.14-1.399c-0.09-0.391,0.07-0.74-0.021-1.12
		c-0.08-0.33-0.029-0.48-0.43-0.4c-0.25,0.05-0.84-0.04-0.96-0.11c-0.24-0.14-0.12-0.779,0.11-0.859c0.47-0.15,0.39,0.05,0.52,0
		c0.16-0.061,0.47,0.14,0.601,0.05c0.039-0.03,0.02-0.44-0.021-0.53c0.03,0.08,0-0.21-0.04-0.319c-0.05-0.13-0.13-0.89-0.13-0.95
		c-0.09-0.12,0.01-0.33-0.05-0.32c0.029-0.01-0.11-0.72-0.11-0.72c-0.08-0.35,0-0.49-0.07-0.82C20.97,9.93,21.2,9.64,21.11,9.27
		c-0.07-0.31-0.04-1.16,0.31-1.25c0.4-0.09,0.9,0.17,1.12,0.31c0.53,0.32,0.13,1.03,0.26,1.63c0.04,0.18-0.02,0.56-0.01,0.59
		c0.25,0.65-0.01,1.58,0.15,2.15c0.069,0.22-0.23,0.97-0.141,1.1c0.22,0.311,0.2-0.25,0.2-0.3c0-0.18,0.32-0.18,0.45-0.1
		c0.069,0.05,0.18,0.05,0.28,0.109c0.21,0.13,0.34,0.53,0.479,0.641c0.08,0.05,0.26,0.05,0.3,0.109c0.141,0.25-0.3,0.34-0.35,0.36
		C23.95,14.69,23.01,14.64,22.85,14.77z"/>
	<path d="M20.47,16.64c-0.18-0.25-0.77-0.279-0.88-0.109c-0.29,0.439-0.62,0.279-0.91,0.399c-0.7,0.28-1.29-0.8-1.41-1.34
		c-0.14-0.67,0.62-0.43,0.91-0.28c0-0.01,0.27,0.04,0.24,0.04c0.18,0.011,0.55-0.1,0.72-0.17c0,0,0,0,0.01,0
		c0.03,0,0.29-0.09,0.3-0.109c0.04-0.08-0.07-0.551-0.04-0.551c-0.12-0.02,0.21-1.62,0.18-1.77c-0.14-0.58,0.24-1.29,0.12-1.66
		c-0.06-0.2-0.72-0.44-0.82-0.5c-0.19-0.11-0.94-0.22-1.04-0.13c-0.37,0.38-0.95,1.02-1.29,1.64c-0.02,0.03-0.13,0.32-0.17,0.33
		c-0.17,0.07-0.29,1.32-0.46,1.62c-0.26,0.46-0.09,1.88,0.08,2.101c0.33,0.409,0.46,0.729,1.04,1.109c0.36,0.23,1.01,0.28,1.15,0.24
		c0.28-0.09,0.36,0.21,0.59,0.15c0.21-0.061,0.65-0.11,0.94-0.21C19.94,17.37,20.8,17.1,20.47,16.64z M17.64,13.72
		c0.09-0.149,0.17-0.71,0.37-0.979c0.04-0.07,0.2-0.3,0.2-0.31c0.01,0,0.12,1.19,0.09,1.129c0.04,0.07-0.01,0.721-0.09,0.79
		c0,0-0.59-0.01-0.65-0.069C17.53,14.24,17.59,13.8,17.64,13.72z"/>
	<path d="M16.22,17.04c-0.22-0.16-0.89-0.5-1.21-0.31c-0.65,0.409-1.42,0.26-1.7-0.53c-0.13-0.36-0.01-0.63-0.1-1.05
		c-0.14-0.66,0.72-0.061,1.24-0.17c0.32-0.061,0.8,0.06,0.93-0.221c0.01-0.01,0.01-0.02,0.02-0.02c0,0,0-0.021-0.01-0.021
		c0.01,0.011,0.01,0.011,0.02,0.011c0.07,0,0.06-0.9,0.1-1.03c-0.09,0.03,0.08-0.19,0.03-0.33c-0.21-0.67-0.02-1.52-0.29-2.12
		c-0.14-0.32-1.78-0.62-1.99-0.33c-0.26,0.36-0.38,0.36-0.65,0.59c-0.08,0.06-0.45,0.39-0.55,0.54c-0.3,0.46-0.66,1.61-0.47,2.44
		c0.12,0.55-0.15,1.16-0.05,1.58c0.02,0.06,0.14,0.14,0.14,0.21c0.01,0.02,0.22,0.62,0.4,0.729c0.1,0.061,0.18,0,0.23,0.07
		c0.05,0.05,0.66,0.43,0.86,0.54c0.56,0.32,2.19-0.03,2.25-0.09C15.46,17.5,16.52,17.26,16.22,17.04z M13.69,12.49
		c0.14-0.1,0.16,0.71,0.2,0.89c0.02,0.09-0.05,0.521-0.07,0.54c-0.04,0.021-0.53-0.03-0.56-0.07C13.1,13.66,13.62,12.54,13.69,12.49
		z"/>
	<path d="M11.69,17.52c-0.02,0-0.25,0.061-0.25,0.061c-0.24,0.09-0.66,0.1-0.76,0.2c-0.21,0.22-0.52-0.221-0.54-0.28
		c-0.07-0.24-0.1-0.41-0.17-0.6C9.75,16.33,9.6,15.8,9.37,15.22c-0.1-0.239-0.1-0.75-0.2-0.8c0.09,0.05-0.03-0.17-0.04-0.18
		c-0.15-0.09-0.08-0.7-0.19-0.82c-0.08-0.09-0.06,0.11-0.08,0.11c0.1,0.319-0.19,0.979-0.08,1.06c0.02,0.021-0.01,0.88,0,0.88
		c0.06,0.221-0.07,1.29-0.2,1.521c-0.18,0.31-1.6,0.439-1.89,0.08c-0.23-0.28-0.57-0.86-0.74-1.13c-0.07-0.101-0.07-0.25-0.13-0.33
		c-0.31-0.391-0.21,0.08-0.2,0.34c0.02,0.51,0.29,1.08-0.25,1.27c-0.46,0.17-1.21,0.311-1.38-0.109c-0.19-0.48-0.11-1.57-0.21-1.78
		c-0.13-0.24-0.09-1.45-0.09-1.57c0.01-0.149,0.04-0.689,0.03-0.74C3.67,12.7,3.76,12.35,3.73,12.23c-0.16-0.64,0.64-0.72,0.91-0.78
		c0.04-0.01,0.81,0.02,0.88,0.11c0.11,0.13,0.05,0.15,0.21,0.34c0.3,0.34,0.5,1.09,0.72,1.37c0.18,0.221,0.41,0.7,0.52,0.95
		c0.19,0.42,0.07-0.85,0.24-1.18c0.19-0.36,0.14-0.86,0.31-1.15c0.22-0.37,0.35-1.13,0.61-1.53c0.14-0.23,0.92-0.06,1.07-0.03
		c0.44,0.09,0.39-0.06,0.69,0.25c0.21,0.22,0.54,1.67,0.7,2.25c0.07,0.24,0.09,1.11,0.28,1.62c0.1,0.26,0.44,1.28,0.5,1.91v0.01
		C11.46,16.48,11.79,17.43,11.69,17.52z"/>
</g>
</svg>
